<?xml version="1.0" encoding="utf-8"?>
<!-- Generator: Adobe Illustrator 25.0 -->
<svg xmlns="http://www.w3.org/2000/svg" viewBox="0 0 1730.6 693">
  <title>EnE logo</title>
  <defs>
    <style>
      .cls-1 { fill: #000; }
      .cls-1, .cls-2 { stroke: #000; stroke-miterlimit: 10; stroke-width: 0px; }
      .cls-2 { fill: #000; }
    </style>
  </defs>
  <g id="Layer_2" data-name="Layer 2">
    <g id="Layer_1-2" data-name="Layer 1">
      <path class="cls-1" d="M477,140H160V277H409V402H160V548H477V680H1V13H477Z"/>
      <path class="cls-2" d="M1169.82,317.05Q1146.89,428.31,1061,527.89,1091.26,559,1129.32,559q13.67,0,40.5-2.92V674.72Q1133.72,684,1103,684q-89.29,0-143.18-64.48Q868.25,692,750.81,692q-128.23,0-191.11-63.73T496.82,482.81q0-132.33,166.11-192.17-39.18-48.49-50.64-75.53a146.24,146.24,0,0,1-11.47-57.73q0-70.15,56.18-113.27T806.48,1q94.29,0,146.31,47t52,118.05q0,109.51-125.23,161.1L973,429q40.37-43.67,58.86-131ZM742.48,378.48q-78.66,26.75-78.66,92.83,0,38.88,28.21,68.28T767.84,569q60.82,0,111.36-40Zm69.22-132.1q72.12-26.32,72.12-77,0-27.32-19.32-46.81T810.93,103q-27.39,0-45.25,14.08t-17.86,36.39q0,27.18,36.85,64.05Z"/>
      <path class="cls-1" d="M1729.6,140h-317V277h249V402h-249V548h317V680h-476V13h476Z"/>
    </g>
  </g>
</svg>
